<mxfile host="app.diagrams.net" modified="2024-07-23T13:46:10.906Z" agent="Mozilla/5.0 (Windows NT 10.0; Win64; x64) AppleWebKit/537.36 (KHTML, like Gecko) Chrome/126.0.0.0 Safari/537.36" etag="PDheWdHQi9vuwJnO1JjZ" version="24.7.1" type="github">
  <diagram id="C5RBs43oDa-KdzZeNtuy" name="Page-1">
    <mxGraphModel dx="2062" dy="1824" grid="1" gridSize="10" guides="1" tooltips="1" connect="1" arrows="1" fold="1" page="1" pageScale="1" pageWidth="827" pageHeight="1169" math="0" shadow="0">
      <root>
        <mxCell id="WIyWlLk6GJQsqaUBKTNV-0" />
        <mxCell id="WIyWlLk6GJQsqaUBKTNV-1" parent="WIyWlLk6GJQsqaUBKTNV-0" />
        <mxCell id="hAuJL57I_cf6v416ctc1-1" value="user" style="rounded=0;whiteSpace=wrap;html=1;" vertex="1" parent="WIyWlLk6GJQsqaUBKTNV-1">
          <mxGeometry x="130" y="90" width="120" height="60" as="geometry" />
        </mxCell>
        <mxCell id="hAuJL57I_cf6v416ctc1-3" value="id" style="ellipse;whiteSpace=wrap;html=1;fontStyle=4" vertex="1" parent="WIyWlLk6GJQsqaUBKTNV-1">
          <mxGeometry x="-30" y="160" width="110" height="60" as="geometry" />
        </mxCell>
        <mxCell id="hAuJL57I_cf6v416ctc1-4" value="name" style="ellipse;whiteSpace=wrap;html=1;fontStyle=0" vertex="1" parent="WIyWlLk6GJQsqaUBKTNV-1">
          <mxGeometry x="25" y="230" width="110" height="60" as="geometry" />
        </mxCell>
        <mxCell id="hAuJL57I_cf6v416ctc1-5" value="email" style="ellipse;whiteSpace=wrap;html=1;fontStyle=0" vertex="1" parent="WIyWlLk6GJQsqaUBKTNV-1">
          <mxGeometry x="135" y="280" width="110" height="60" as="geometry" />
        </mxCell>
        <mxCell id="hAuJL57I_cf6v416ctc1-6" value="password" style="ellipse;whiteSpace=wrap;html=1;fontStyle=0" vertex="1" parent="WIyWlLk6GJQsqaUBKTNV-1">
          <mxGeometry x="245" y="230" width="110" height="60" as="geometry" />
        </mxCell>
        <mxCell id="hAuJL57I_cf6v416ctc1-7" value="cell" style="ellipse;whiteSpace=wrap;html=1;fontStyle=0" vertex="1" parent="WIyWlLk6GJQsqaUBKTNV-1">
          <mxGeometry x="320" y="160" width="110" height="60" as="geometry" />
        </mxCell>
        <mxCell id="hAuJL57I_cf6v416ctc1-8" value="" style="endArrow=none;html=1;rounded=0;entryX=0.5;entryY=1;entryDx=0;entryDy=0;exitX=0.5;exitY=0;exitDx=0;exitDy=0;" edge="1" parent="WIyWlLk6GJQsqaUBKTNV-1" source="hAuJL57I_cf6v416ctc1-5" target="hAuJL57I_cf6v416ctc1-1">
          <mxGeometry width="50" height="50" relative="1" as="geometry">
            <mxPoint x="100" y="320" as="sourcePoint" />
            <mxPoint x="150" y="270" as="targetPoint" />
          </mxGeometry>
        </mxCell>
        <mxCell id="hAuJL57I_cf6v416ctc1-9" value="" style="endArrow=none;html=1;rounded=0;entryX=0.5;entryY=1;entryDx=0;entryDy=0;exitX=0;exitY=0;exitDx=0;exitDy=0;" edge="1" parent="WIyWlLk6GJQsqaUBKTNV-1" source="hAuJL57I_cf6v416ctc1-6" target="hAuJL57I_cf6v416ctc1-1">
          <mxGeometry width="50" height="50" relative="1" as="geometry">
            <mxPoint x="299.5" y="410" as="sourcePoint" />
            <mxPoint x="299.5" y="280" as="targetPoint" />
          </mxGeometry>
        </mxCell>
        <mxCell id="hAuJL57I_cf6v416ctc1-10" value="" style="endArrow=none;html=1;rounded=0;entryX=0.5;entryY=1;entryDx=0;entryDy=0;exitX=0;exitY=0.5;exitDx=0;exitDy=0;" edge="1" parent="WIyWlLk6GJQsqaUBKTNV-1" source="hAuJL57I_cf6v416ctc1-7" target="hAuJL57I_cf6v416ctc1-1">
          <mxGeometry width="50" height="50" relative="1" as="geometry">
            <mxPoint x="271" y="249" as="sourcePoint" />
            <mxPoint x="200" y="160" as="targetPoint" />
          </mxGeometry>
        </mxCell>
        <mxCell id="hAuJL57I_cf6v416ctc1-11" value="" style="endArrow=none;html=1;rounded=0;entryX=1;entryY=0;entryDx=0;entryDy=0;exitX=0.5;exitY=1;exitDx=0;exitDy=0;" edge="1" parent="WIyWlLk6GJQsqaUBKTNV-1" source="hAuJL57I_cf6v416ctc1-1" target="hAuJL57I_cf6v416ctc1-4">
          <mxGeometry width="50" height="50" relative="1" as="geometry">
            <mxPoint x="330" y="200" as="sourcePoint" />
            <mxPoint x="200" y="160" as="targetPoint" />
          </mxGeometry>
        </mxCell>
        <mxCell id="hAuJL57I_cf6v416ctc1-12" value="" style="endArrow=none;html=1;rounded=0;entryX=1;entryY=0.5;entryDx=0;entryDy=0;exitX=0.5;exitY=1;exitDx=0;exitDy=0;" edge="1" parent="WIyWlLk6GJQsqaUBKTNV-1" source="hAuJL57I_cf6v416ctc1-1" target="hAuJL57I_cf6v416ctc1-3">
          <mxGeometry width="50" height="50" relative="1" as="geometry">
            <mxPoint x="340" y="210" as="sourcePoint" />
            <mxPoint x="210" y="170" as="targetPoint" />
          </mxGeometry>
        </mxCell>
        <mxCell id="hAuJL57I_cf6v416ctc1-13" value="project" style="rounded=0;whiteSpace=wrap;html=1;" vertex="1" parent="WIyWlLk6GJQsqaUBKTNV-1">
          <mxGeometry x="720" y="90" width="120" height="60" as="geometry" />
        </mxCell>
        <mxCell id="hAuJL57I_cf6v416ctc1-14" value="id" style="ellipse;whiteSpace=wrap;html=1;fontStyle=4" vertex="1" parent="WIyWlLk6GJQsqaUBKTNV-1">
          <mxGeometry x="650" y="190" width="110" height="60" as="geometry" />
        </mxCell>
        <mxCell id="hAuJL57I_cf6v416ctc1-15" value="name" style="ellipse;whiteSpace=wrap;html=1;fontStyle=0" vertex="1" parent="WIyWlLk6GJQsqaUBKTNV-1">
          <mxGeometry x="800" y="190" width="110" height="60" as="geometry" />
        </mxCell>
        <mxCell id="hAuJL57I_cf6v416ctc1-17" value="" style="endArrow=none;html=1;rounded=0;entryX=0.5;entryY=1;entryDx=0;entryDy=0;exitX=1;exitY=0;exitDx=0;exitDy=0;" edge="1" parent="WIyWlLk6GJQsqaUBKTNV-1" source="hAuJL57I_cf6v416ctc1-14" target="hAuJL57I_cf6v416ctc1-13">
          <mxGeometry width="50" height="50" relative="1" as="geometry">
            <mxPoint x="640" y="350" as="sourcePoint" />
            <mxPoint x="510" y="310" as="targetPoint" />
          </mxGeometry>
        </mxCell>
        <mxCell id="hAuJL57I_cf6v416ctc1-18" value="" style="endArrow=none;html=1;rounded=0;entryX=0.5;entryY=1;entryDx=0;entryDy=0;exitX=0;exitY=0;exitDx=0;exitDy=0;" edge="1" parent="WIyWlLk6GJQsqaUBKTNV-1" source="hAuJL57I_cf6v416ctc1-15" target="hAuJL57I_cf6v416ctc1-13">
          <mxGeometry width="50" height="50" relative="1" as="geometry">
            <mxPoint x="754" y="209" as="sourcePoint" />
            <mxPoint x="790" y="160" as="targetPoint" />
          </mxGeometry>
        </mxCell>
        <mxCell id="hAuJL57I_cf6v416ctc1-19" value="possui" style="html=1;whiteSpace=wrap;aspect=fixed;shape=isoRectangle;" vertex="1" parent="WIyWlLk6GJQsqaUBKTNV-1">
          <mxGeometry x="460" y="82.5" width="125" height="75" as="geometry" />
        </mxCell>
        <mxCell id="hAuJL57I_cf6v416ctc1-21" value="" style="endArrow=none;html=1;rounded=0;exitX=1;exitY=0.5;exitDx=0;exitDy=0;" edge="1" parent="WIyWlLk6GJQsqaUBKTNV-1" source="hAuJL57I_cf6v416ctc1-1">
          <mxGeometry width="50" height="50" relative="1" as="geometry">
            <mxPoint x="754" y="209" as="sourcePoint" />
            <mxPoint x="459" y="119" as="targetPoint" />
          </mxGeometry>
        </mxCell>
        <mxCell id="hAuJL57I_cf6v416ctc1-23" value="" style="endArrow=none;html=1;rounded=0;exitX=1.019;exitY=0.513;exitDx=0;exitDy=0;exitPerimeter=0;entryX=0;entryY=0.5;entryDx=0;entryDy=0;" edge="1" parent="WIyWlLk6GJQsqaUBKTNV-1" source="hAuJL57I_cf6v416ctc1-19" target="hAuJL57I_cf6v416ctc1-13">
          <mxGeometry width="50" height="50" relative="1" as="geometry">
            <mxPoint x="540" y="200" as="sourcePoint" />
            <mxPoint x="699" y="300" as="targetPoint" />
          </mxGeometry>
        </mxCell>
        <mxCell id="hAuJL57I_cf6v416ctc1-24" value="task" style="rounded=0;whiteSpace=wrap;html=1;" vertex="1" parent="WIyWlLk6GJQsqaUBKTNV-1">
          <mxGeometry x="720" y="-150" width="120" height="60" as="geometry" />
        </mxCell>
        <mxCell id="hAuJL57I_cf6v416ctc1-25" value="name" style="ellipse;whiteSpace=wrap;html=1;" vertex="1" parent="WIyWlLk6GJQsqaUBKTNV-1">
          <mxGeometry x="650" y="-250" width="100" height="60" as="geometry" />
        </mxCell>
        <mxCell id="hAuJL57I_cf6v416ctc1-26" value="start_date" style="ellipse;whiteSpace=wrap;html=1;" vertex="1" parent="WIyWlLk6GJQsqaUBKTNV-1">
          <mxGeometry x="810" y="-250" width="100" height="60" as="geometry" />
        </mxCell>
        <mxCell id="hAuJL57I_cf6v416ctc1-27" value="final_date" style="ellipse;whiteSpace=wrap;html=1;" vertex="1" parent="WIyWlLk6GJQsqaUBKTNV-1">
          <mxGeometry x="880" y="-150" width="100" height="60" as="geometry" />
        </mxCell>
        <mxCell id="hAuJL57I_cf6v416ctc1-28" value="id" style="ellipse;whiteSpace=wrap;html=1;fontStyle=4" vertex="1" parent="WIyWlLk6GJQsqaUBKTNV-1">
          <mxGeometry x="570" y="-150" width="110" height="60" as="geometry" />
        </mxCell>
        <mxCell id="hAuJL57I_cf6v416ctc1-29" value="" style="endArrow=none;html=1;rounded=0;entryX=1;entryY=0.5;entryDx=0;entryDy=0;exitX=0;exitY=0.5;exitDx=0;exitDy=0;" edge="1" parent="WIyWlLk6GJQsqaUBKTNV-1" source="hAuJL57I_cf6v416ctc1-24" target="hAuJL57I_cf6v416ctc1-28">
          <mxGeometry width="50" height="50" relative="1" as="geometry">
            <mxPoint x="510" y="19" as="sourcePoint" />
            <mxPoint x="546" y="-30" as="targetPoint" />
          </mxGeometry>
        </mxCell>
        <mxCell id="hAuJL57I_cf6v416ctc1-30" value="" style="endArrow=none;html=1;rounded=0;exitX=0;exitY=0.5;exitDx=0;exitDy=0;entryX=1;entryY=0.5;entryDx=0;entryDy=0;" edge="1" parent="WIyWlLk6GJQsqaUBKTNV-1" source="hAuJL57I_cf6v416ctc1-27" target="hAuJL57I_cf6v416ctc1-24">
          <mxGeometry width="50" height="50" relative="1" as="geometry">
            <mxPoint x="730" y="-110" as="sourcePoint" />
            <mxPoint x="870" y="50" as="targetPoint" />
          </mxGeometry>
        </mxCell>
        <mxCell id="hAuJL57I_cf6v416ctc1-31" value="" style="endArrow=none;html=1;rounded=0;exitX=0;exitY=1;exitDx=0;exitDy=0;entryX=0.5;entryY=0;entryDx=0;entryDy=0;" edge="1" parent="WIyWlLk6GJQsqaUBKTNV-1" source="hAuJL57I_cf6v416ctc1-26" target="hAuJL57I_cf6v416ctc1-24">
          <mxGeometry width="50" height="50" relative="1" as="geometry">
            <mxPoint x="910" y="-10" as="sourcePoint" />
            <mxPoint x="1157.5" y="119.99999999999977" as="targetPoint" />
          </mxGeometry>
        </mxCell>
        <mxCell id="hAuJL57I_cf6v416ctc1-32" value="" style="endArrow=none;html=1;rounded=0;exitX=1;exitY=1;exitDx=0;exitDy=0;entryX=0.5;entryY=0;entryDx=0;entryDy=0;" edge="1" parent="WIyWlLk6GJQsqaUBKTNV-1" source="hAuJL57I_cf6v416ctc1-25" target="hAuJL57I_cf6v416ctc1-24">
          <mxGeometry width="50" height="50" relative="1" as="geometry">
            <mxPoint x="542.5" y="-270" as="sourcePoint" />
            <mxPoint x="522.5" y="-170" as="targetPoint" />
          </mxGeometry>
        </mxCell>
        <mxCell id="hAuJL57I_cf6v416ctc1-33" value="possui" style="html=1;aspect=fixed;shape=isoRectangle;whiteSpace=wrap;" vertex="1" parent="WIyWlLk6GJQsqaUBKTNV-1">
          <mxGeometry x="717.5" y="-40" width="125" height="75" as="geometry" />
        </mxCell>
        <mxCell id="hAuJL57I_cf6v416ctc1-34" value="" style="endArrow=none;html=1;rounded=0;exitX=0.5;exitY=1;exitDx=0;exitDy=0;entryX=0.51;entryY=0;entryDx=0;entryDy=0;entryPerimeter=0;" edge="1" parent="WIyWlLk6GJQsqaUBKTNV-1" source="hAuJL57I_cf6v416ctc1-24" target="hAuJL57I_cf6v416ctc1-33">
          <mxGeometry width="50" height="50" relative="1" as="geometry">
            <mxPoint x="597" y="131" as="sourcePoint" />
            <mxPoint x="900" y="-30" as="targetPoint" />
          </mxGeometry>
        </mxCell>
        <mxCell id="hAuJL57I_cf6v416ctc1-35" value="" style="endArrow=none;html=1;rounded=0;entryX=0.5;entryY=0;entryDx=0;entryDy=0;" edge="1" parent="WIyWlLk6GJQsqaUBKTNV-1" target="hAuJL57I_cf6v416ctc1-13">
          <mxGeometry width="50" height="50" relative="1" as="geometry">
            <mxPoint x="780" y="30" as="sourcePoint" />
            <mxPoint x="791" y="-30" as="targetPoint" />
          </mxGeometry>
        </mxCell>
      </root>
    </mxGraphModel>
  </diagram>
</mxfile>
